ModelForces
version=1
nRows=4
nColumns=155
inDegrees=no

This file contains the forces exerted on a model during a simulation.

A force is a generalized force, meaning that it can be either a force (N) or a torque (Nm).

Units are S.I. units (second, meters, Newtons, ...)
Angles are in degrees.

endheader
time	glut_med1_r	glut_med2_r	glut_med3_r	glut_min1_r	glut_min2_r	glut_min3_r	semimem_r	semiten_r	bifemlh_r	bifemsh_r	sar_r	add_long_r	add_brev_r	add_mag1_r	add_mag2_r	add_mag3_r	tfl_r	pect_r	grac_r	glut_max1_r	glut_max2_r	glut_max3_r	iliacus_r	psoas_r	quad_fem_r	gem_r	peri_r	rect_fem_r	vas_med_r	vas_int_r	vas_lat_r	med_gas_r	lat_gas_r	soleus_r	tib_post_r	flex_dig_r	flex_hal_r	tib_ant_r	per_brev_r	per_long_r	per_tert_r	ext_dig_r	ext_hal_r	glut_med1_l	glut_med2_l	glut_med3_l	glut_min1_l	glut_min2_l	glut_min3_l	semimem_l	semiten_l	bifemlh_l	bifemsh_l	sar_l	add_long_l	add_brev_l	add_mag1_l	add_mag2_l	add_mag3_l	tfl_l	pect_l	grac_l	glut_max1_l	glut_max2_l	glut_max3_l	iliacus_l	psoas_l	quad_fem_l	gem_l	peri_l	rect_fem_l	vas_med_l	vas_int_l	vas_lat_l	med_gas_l	lat_gas_l	soleus_l	tib_post_l	flex_dig_l	flex_hal_l	tib_ant_l	per_brev_l	per_long_l	per_tert_l	ext_dig_l	ext_hal_l	ercspn_r	ercspn_l	intobl_r	intobl_l	extobl_r	extobl_l	femur_lat_meniscii_r.femur_lat_r.force.X	femur_lat_meniscii_r.femur_lat_r.force.Y	femur_lat_meniscii_r.femur_lat_r.force.Z	femur_lat_meniscii_r.femur_lat_r.torque.X	femur_lat_meniscii_r.femur_lat_r.torque.Y	femur_lat_meniscii_r.femur_lat_r.torque.Z	femur_lat_meniscii_r.meniscus_lat_r.force.X	femur_lat_meniscii_r.meniscus_lat_r.force.Y	femur_lat_meniscii_r.meniscus_lat_r.force.Z	femur_lat_meniscii_r.meniscus_lat_r.torque.X	femur_lat_meniscii_r.meniscus_lat_r.torque.Y	femur_lat_meniscii_r.meniscus_lat_r.torque.Z	femur_med_meniscii_r.femur_med_r.force.X	femur_med_meniscii_r.femur_med_r.force.Y	femur_med_meniscii_r.femur_med_r.force.Z	femur_med_meniscii_r.femur_med_r.torque.X	femur_med_meniscii_r.femur_med_r.torque.Y	femur_med_meniscii_r.femur_med_r.torque.Z	femur_med_meniscii_r.meniscus_med_r.force.X	femur_med_meniscii_r.meniscus_med_r.force.Y	femur_med_meniscii_r.meniscus_med_r.force.Z	femur_med_meniscii_r.meniscus_med_r.torque.X	femur_med_meniscii_r.meniscus_med_r.torque.Y	femur_med_meniscii_r.meniscus_med_r.torque.Z	femur_med_tibia_r.tibia_upper_r.force.X	femur_med_tibia_r.tibia_upper_r.force.Y	femur_med_tibia_r.tibia_upper_r.force.Z	femur_med_tibia_r.tibia_upper_r.torque.X	femur_med_tibia_r.tibia_upper_r.torque.Y	femur_med_tibia_r.tibia_upper_r.torque.Z	femur_med_tibia_r.femur_med_r.force.X	femur_med_tibia_r.femur_med_r.force.Y	femur_med_tibia_r.femur_med_r.force.Z	femur_med_tibia_r.femur_med_r.torque.X	femur_med_tibia_r.femur_med_r.torque.Y	femur_med_tibia_r.femur_med_r.torque.Z	femur_lat_tibia_r.tibia_upper_r.force.X	femur_lat_tibia_r.tibia_upper_r.force.Y	femur_lat_tibia_r.tibia_upper_r.force.Z	femur_lat_tibia_r.tibia_upper_r.torque.X	femur_lat_tibia_r.tibia_upper_r.torque.Y	femur_lat_tibia_r.tibia_upper_r.torque.Z	femur_lat_tibia_r.femur_lat_r.force.X	femur_lat_tibia_r.femur_lat_r.force.Y	femur_lat_tibia_r.femur_lat_r.force.Z	femur_lat_tibia_r.femur_lat_r.torque.X	femur_lat_tibia_r.femur_lat_r.torque.Y	femur_lat_tibia_r.femur_lat_r.torque.Z	aACL_R	pACL_R	aPCL_R	pPCL_R	aMCL_R	mMCL_R	pMCL_R	aLCL_R	mLCL_R	pLCL_R	aPCL_L	pPCL_L	aMCL_L	aLCL_L
      0.10980815	      9.84323872	     11.21335273	     12.09341970	      5.11851977	      5.86894572	      6.52027593	    113.50592757	    167.08077328	    228.54127591	    363.98148268	    125.99698636	     11.19784588	      7.92365368	      0.00000000	      4.81811827	      8.41867709	      5.03931016	      3.66365659	     99.89163151	      7.24923423	     11.03934993	      8.33004653	     32.87364400	     24.60176352	      7.01209849	      4.53504726	      4.40735702	     38.45051678	      0.00000000	      0.00000000	      0.00000000	     27.27363418	      0.59170351	      0.00000000	      0.00000000	      1.68815998	      0.00000000	     29.70686009	      3.24603576	      4.11528203	      9.23490784	     17.34612642	      5.36881805	      9.84323872	     11.21335273	     12.09341970	      5.11851977	      5.86894572	      6.52027593	      0.00000000	      8.44901646	     14.89440911	     14.09903893	      2.91669066	     11.19784588	      7.92365368	      0.00000000	      4.81811827	      8.41867709	      6.80984929	      3.66365659	      3.02563432	      7.24923423	     11.03934993	      8.33004653	     32.87364400	     24.60176352	      7.01209849	      4.53504726	      4.40735702	     23.26378411	      0.00000000	      0.00000000	      0.00000000	     16.82791988	      8.63906440	     58.15313268	     57.56909771	      7.72362501	      7.10569224	     16.76891088	      9.40349903	     21.72985459	      3.79785851	     11.74300239	      3.96426213	     48.20880052	     48.20880052	     18.29615061	     18.29615061	     35.24412286	     35.24412286	     42.33785550	    247.12204200	     37.78593985	    -21.51447699	      1.09573967	     16.46145101	    -42.33785550	   -247.12204200	    -37.78593985	      7.58157958	     -1.57583148	      2.28971065	    -25.50940329	     50.79843557	      6.68736611	     -1.54751258	      0.59779032	    -10.45510688	     25.50940329	    -50.79843557	     -6.68736611	     -0.90364574	     -0.61411548	      1.22900905	    -95.39802037	   -510.49253800	    117.10773737	    -12.12286388	      2.43846621	      0.77199128	     95.39802037	    510.49253800	   -117.10773737	     57.95902189	     -1.42187885	     40.99842548	    -42.34085875	   -162.14924184	    -41.43987577	      5.53099471	     -1.53505871	      0.35668082	     42.34085875	    162.14924184	     41.43987577	    -21.03765459	      1.01705066	     17.51402689	     10.15260462	    -12.38574795	      0.00000000	     59.10231026	      0.00000000	      0.00000000	    -37.15648136	      0.00000000	      0.00000000	      0.00000000	      0.00000000	      0.00000000	      0.00000001	      0.00000000
      0.11087150	     10.44583458	     11.13498673	     12.00898513	      5.08396024	      5.83085274	      6.48157085	    112.99574053	    166.82646211	    225.42956202	    361.11971010	    126.07599005	     11.11853471	      7.87063445	      0.00000000	      4.79547704	      8.35758700	      5.04101034	      3.92480835	     99.82026616	      7.19863898	     10.96141521	      8.27050149	     32.72674514	     24.43448198	      6.97775354	      4.51093888	      4.57495106	     38.26176792	      0.00000000	      0.00000000	      0.00000000	     29.74305384	      0.59265647	      0.00000000	      0.00000000	      1.28988594	      0.00000000	     30.19834304	      3.63945753	      4.33761934	      4.41490472	     17.50997123	      5.33797443	     10.44583458	     11.13498673	     12.00898513	      5.08396024	      5.83085274	      6.48157085	      0.00000000	      8.38690711	     14.87747240	     14.00176995	      2.89708614	     11.11853471	      7.87063445	      0.00000000	      4.79547704	      8.35758700	      6.77372765	      3.92480835	      3.00495919	      7.19863898	     10.96141521	      8.27050149	     32.72674514	     24.43448198	      6.97775354	      4.51093888	      4.57495106	     23.11076635	      0.00000000	      0.00000000	      0.00000000	     17.16577807	      8.76344472	     58.16268942	     57.44958377	      7.62017868	      6.99537409	     16.72909621	      9.35735541	     21.67902553	      3.77231142	     11.82753537	      3.98476676	     47.88262306	     47.88262306	     18.16395864	     18.16395864	     35.12240992	     35.12240992	     42.41484781	    249.82688437	     36.74798482	    -21.14369021	      1.08975357	     16.45116765	    -42.41484781	   -249.82688437	    -36.74798482	      7.60287774	     -1.56369183	      2.39977130	    -24.61640429	     51.79928057	      7.15123176	     -1.71127731	      0.57034234	    -10.08490951	     24.61640429	    -51.79928057	     -7.15123176	     -0.91730130	     -0.59553143	      1.21911143	   -100.85509240	   -511.75913030	    117.94011694	    -12.18252944	      2.56001080	      0.70598392	    100.85509240	    511.75913030	   -117.94011694	     58.31988020	     -1.52227217	     43.25072164	    -40.63268988	   -155.01977849	    -39.16571207	      5.25647270	     -1.47595568	      0.38794586	     40.63268988	    155.01977849	     39.16571207	    -19.91504880	      0.98016223	     16.78205136	      9.22975789	    -12.98729814	     27.11933244	     60.81485209	      0.00000000	      0.00000000	    -38.30569294	      0.00000000	      0.00000000	      0.00000000	      0.00000000	      0.00000000	      0.00000001	      0.00000000
      0.11193485	     10.94623348	     11.05772450	     11.92561898	      5.04989959	      5.79331551	      6.44266614	    112.39508733	    166.48713393	    221.99020014	    357.38147609	    126.05744767	     11.04038226	      7.81837802	      0.00000000	      4.77184128	      8.29723516	      5.03198860	      4.04945508	     99.66824166	      7.14870494	     10.88460879	      8.21182482	     32.58203430	     24.26967739	      6.94113826	      4.48717035	      4.73010680	     38.00490117	      0.00000000	      0.00000000	      0.00000000	     32.27956232	      0.58679216	      0.00000000	      0.00000000	      0.91359783	      0.00000000	     26.79284266	      4.05274019	      4.57938352	      5.98465887	     17.67543424	      5.31235766	     10.94623348	     11.05772450	     11.92561898	      5.04989959	      5.79331551	      6.44266614	      0.00000000	      8.32570458	     14.85758163	     13.90591547	      2.87776415	     11.04038226	      7.81837802	      0.00000000	      4.77184128	      8.29723516	      6.73797528	      4.04945508	      2.98458367	      7.14870494	     10.88460879	      8.21182482	     32.58203430	     24.26967739	      6.94113826	      4.48717035	      4.73010680	     22.95845508	      0.00000000	      0.00000000	      0.00000000	     17.48394764	      8.88035115	     58.15885305	     57.32817298	      7.52015551	      6.88886406	     16.68590014	      9.31064475	     21.62656234	      3.74712496	     11.89764114	      3.99828768	     47.56115705	     47.56115705	     18.03369511	     18.03369511	     35.00252414	     35.00252414	     47.22578555	    262.80894020	     34.90463584	    -20.67986666	      1.18818380	     18.37189869	    -47.22578555	   -262.80894020	    -34.90463584	      7.86048528	     -1.65696579	      2.50227563	    -22.67365851	     53.47037032	      7.62025833	     -1.85990554	      0.52440385	     -9.26385673	     22.67365851	    -53.47037032	     -7.62025833	     -0.94660049	     -0.56066850	      1.16771714	   -113.20298215	   -530.74252367	    123.58089906	    -12.69981856	      2.83047630	      0.53977109	    113.20298215	    530.74252367	   -123.58089906	     61.01456679	     -1.73249410	     48.43316462	    -42.44482572	   -153.26939890	    -38.15793537	      5.16009234	     -1.51512592	      0.34384545	     42.44482572	    153.26939890	     38.15793537	    -19.44282763	      1.02104703	     17.52806975	      8.40501811	    -13.53571935	     24.73795487	     57.08761929	      0.00000000	      0.00000000	      0.00000000	      0.00000000	      0.00000000	      0.00000000	      0.00000000	      0.00000000	      0.00000001	      0.00000000
      0.11299819	     11.36199423	     10.98155532	     11.84332781	      5.01633027	      5.75632552	      6.40362930	    111.84209584	    166.25557219	    218.56546245	    354.07388365	    126.11622744	     10.96337090	      7.76687289	      0.00000000	      4.74737504	      8.23762262	      5.01824709	      4.10336610	     99.58913212	      7.09943380	     10.80891551	      8.15400384	     32.43947723	     24.10731149	      6.90284089	      4.46373832	      4.87381526	     37.91697043	      0.00000000	      0.00000000	      0.00000000	     34.91658934	      0.58909505	      0.00000000	      0.00000000	      0.56539517	      0.00000000	     28.83528101	      4.47695588	      4.83698518	      8.11018610	     17.85381093	      5.27889103	     11.36199423	     10.98155532	     11.84332781	      5.01633027	      5.75632552	      6.40362930	      0.00000000	      8.26539510	     14.83482899	     13.81145396	      2.85872041	     10.96337090	      7.76687289	      0.00000000	      4.74737504	      8.23762262	      6.70259665	      4.10336610	      2.96450323	      7.09943380	     10.80891551	      8.15400384	     32.43947723	     24.10731149	      6.90284089	      4.46373832	      4.87381526	     22.80693221	      0.00000000	      0.00000000	      0.00000000	     17.78348037	      8.99014560	     58.14643187	     57.20498229	      7.42362135	      6.78627299	     16.63950477	      9.26342690	     21.57251798	      3.72229532	     11.95297934	      4.00509359	     47.24433120	     47.24433120	     17.90533108	     17.90533108	     34.88443653	     34.88443653	     46.30072415	    257.01071378	     35.18490268	    -20.65729815	      1.14964962	     17.96951123	    -46.30072415	   -257.01071378	    -35.18490268	      7.71022753	     -1.62462413	      2.53736037	    -20.17422094	     51.94534106	      8.22268176	     -2.14603000	      0.46378744	     -8.22945258	     20.17422094	    -51.94534106	     -8.22268176	     -0.89568574	     -0.51371298	      1.08204645	   -127.94210986	   -551.85853653	    127.97399391	    -13.19085382	      3.13301302	      0.32822447	    127.94210986	    551.85853653	   -127.97399391	     63.21122377	     -1.98939943	     54.61125483	    -44.19981557	   -152.91422334	    -38.37415878	      5.14769122	     -1.56786965	      0.31854203	     44.19981557	    152.91422334	     38.37415878	    -19.51934958	      1.06225196	     18.24970305	      9.16435736	    -12.54079844	     25.46156814	     59.86031283	      0.00000000	      0.00000000	      0.00000000	      0.00000000	      0.00000000	      0.00000000	      0.00000000	      0.00000000	      0.00000001	      0.00000000
